<?xml version="1.0" encoding="UTF-8"?>
<svg width="79px" height="114px" viewBox="0 0 79 114" version="1.1" xmlns="http://www.w3.org/2000/svg" xmlns:xlink="http://www.w3.org/1999/xlink">
    <title>Grimm-logo</title>
    <g id="Page-1" stroke="none" stroke-width="1" fill="none" fill-rule="evenodd">
        <g id="Desktop" transform="translate(-141.000000, -43.000000)" fill="#D8D8D8" fill-rule="nonzero">
            <g id="grimm-color" transform="translate(141.000000, 43.000000)">
                <path d="M43.8883593,83.8632012 C44.1743621,80.4362744 46.6085642,77.2945816 49.4704994,72.7245008 C45.3183735,77.5798154 42.7424412,80.4362744 43.8883593,83.8632012 M44.6046375,43.8835512 C46.8967915,47.4518272 50.1864599,48.0222949 53.0483951,52.8795112 C51.332378,48.4510966 48.0404851,47.1643748 44.6046375,43.8835512 M37.290909,64.6523816 C36.5030741,64.6043266 35.7243623,64.8418142 35.0982205,65.3210966 C34.9151786,65.4374087 33.4714998,66.7833957 34.9358344,68.0907177 C36.0496566,69.0855502 37.2095571,67.8580936 37.2095571,67.8580936 C36.0245519,66.5903875 37.0427221,65.4374087 37.9690535,65.7086978 C38.445725,65.850364 39.5341247,66.7013117 39.0374331,68.5312456 C38.7355412,69.6404885 37.4682308,71.5861006 37.0671912,72.071949 C36.6715539,72.5511419 36.8291733,72.5397326 37.2524575,72.2342154 C37.2524575,72.2342154 40.4232758,68.900782 39.9199108,66.5095712 C39.665686,65.3119058 38.661816,64.6523816 37.2890023,64.6523816 M20.4599588,73.2607405 C20.4599588,73.2607405 18.9752862,75.5834951 19.8949443,77.8900865 C21.2264465,81.2301754 22.4343319,83.082928 22.5960824,87.0277127 C22.6259538,87.716711 23.3647945,84.2489008 22.1133731,81.7550058 C20.0932396,77.7300386 19.7319227,75.9188034 20.4609122,73.2613743 M24.3362508,70.4435804 C24.0594636,72.0887461 21.3875614,73.6651387 24.0572392,78.4199877 C22.6777521,72.9396939 24.6085891,72.0887461 24.3362508,70.4435804 M27.0564558,71.8789407 C27.4348468,73.4340827 27.4996576,75.0487046 27.2471243,76.6290358 C27.2471243,76.6290358 29.6123679,74.2698346 28.0040786,72.6180134 L27.0564558,71.8789407 Z M27.0106953,83.6426203 C26.4914412,82.1343668 33.7594093,77.3842718 33.427646,75.9238742 C25.6861843,81.4269868 26.2054384,82.6522248 27.0106953,83.6426203 M22.8159868,90.2029998 L22.2465233,90.9877099 C22.2465233,90.9877099 22.5782866,91.5081033 24.7833686,92.0738172 C23.0975407,90.9877099 22.8159868,90.2039506 22.8159868,90.2039506 M22.152778,92.1226239 C22.152778,92.1226239 22.1982206,92.8756414 23.0975407,93.6308773 L23.239271,93.1130193 L22.152778,92.1226239 Z M29.0432223,91.83739 C28.3866868,91.83739 29.37721,93.019526 29.37721,93.5852399 C29.37721,94.0574605 29.9492157,93.7906083 30.0817304,93.2543686 L30.4157182,91.9812746 C30.0381944,91.7461151 29.6104613,91.83739 29.0432223,91.83739 M31.7885319,91.7917526 C31.7885319,91.7917526 32.6395493,92.6861193 32.6395493,93.300006 C32.6395493,93.899948 34.044141,93.019526 33.8061231,92.3577834 C33.6186324,91.832953 31.7885319,91.7917526 31.7885319,91.7917526 M48.4685361,56.1606517 C62.5011072,66.2997658 39.1620032,82.7190963 46.1782888,90.1465869 C42.5981686,83.0074995 54.1304392,74.5538008 54.341128,65.1566118 C54.4828583,58.7318768 49.040224,55.8754178 48.4685361,56.1606517 M42.311848,60.7326341 C42.4463684,60.890681 42.5983872,61.0330413 42.7650036,61.1569987 C49.8680434,68.0612436 42.1402463,72.6813987 40.6040932,74.2305381 C40.6040932,74.2305381 42.3035857,74.2486005 45.0352307,71.1547636 C47.4100077,68.4558171 46.0349696,64.4447947 46.0349696,64.4447947 C43.3020534,60.8901466 43.3401871,61.5607632 42.765957,61.1569987 L42.311848,60.7326341 Z M44.0300896,44.453702 C43.0303507,50.3082861 57.2024277,54.3056807 57.4884305,64.1573424 C58.9206693,53.5938636 45.3174202,50.1647184 44.0300896,44.453702 M42.1929979,38.512597 C41.4242858,42.3024046 48.6372778,42.51221 51.0463751,47.5931764 C50.3555194,42.51221 44.5035832,43.0072493 42.1929979,38.512597 M45.1760077,33.7441202 C42.9197629,38.6403184 46.2536029,40.013878 48.1822154,41.4080379 C45.3981366,39.2107862 44.7641636,38.0996417 45.1760077,33.7441202 M51.6936949,30.2262355 C50.7260519,30.3336736 50.1381572,31.6159584 50.4057287,32.0961021 C51.1013512,32.2035402 51.5313089,32.3632712 52.402982,32.0438093 C51.4261234,31.885346 50.9570787,31.4185132 51.5313089,31.0832049 C52.0826588,30.7615245 52.6683291,30.9212554 51.6936949,30.2275032 M41.3098847,39.1737058 C42.0090027,43.07729 43.2566107,46.5774268 39.159461,50.2344422 C36.2994324,50.9576686 33.4394039,53.6680244 33.4394039,55.0596489 C33.4394039,56.4309901 33.9907538,56.1571655 34.1601311,56.9580389 C35.7134444,54.0445332 36.8526891,53.4604376 39.3876277,50.2458516 C41.2557926,49.2980935 42.5563817,47.5159758 42.8863959,45.4517037 C43.1723988,43.452848 42.4564383,42.3122294 41.3102024,39.1705365 M28.5671864,26.1746465 C30.8571159,37.8838147 41.1678366,36.0288437 38.017674,49.0221982 C38.017674,49.0221982 41.4767197,44.5025087 38.7336345,39.0266519 C37.3013958,36.1701929 31.4288038,33.3159524 28.5671864,26.1746465 M30.4268405,35.5997251 C31.1453432,38.4561841 38.4454072,43.0240464 33.8652304,50.0214676 C35.3203493,48.8944768 36.4414805,48.7369643 36.5854353,45.7369376 C36.7761039,41.7211614 31.1453432,36.5993114 30.4268405,35.5997251 M28.6494917,60.0398327 C28.6494917,60.0398327 27.8715639,62.3283593 28.5671864,65.6592573 C28.9421679,67.4641539 30.5183614,69.362227 31.3970257,69.9555135 C29.6149102,65.8624072 28.7295725,63.1656792 28.6494917,60.0398327 M37.6903597,54.5186553 C36.6455252,54.6462049 35.8279608,55.4773524 35.7201178,56.5216311 C37.1132694,55.9489448 40.6409558,55.4196775 44.8823781,55.5407434 C42.6439056,54.4815695 40.1357385,54.1251547 37.6897241,54.5186553 M38.938921,77.5370304 C38.938921,76.2693242 39.4352948,75.3603788 39.9338931,74.5262282 C39.9937992,74.4766704 40.0350358,74.4082765 40.0508365,74.3322691 L39.9338931,74.5262282 C39.7829472,74.6697959 39.4352948,74.8295269 38.6309913,74.7861079 C37.2699355,74.7087779 37.0821269,74.5534839 37.0662379,74.4872462 C35.6730862,83.5976167 28.2106362,85.7352863 27.5744387,89.1393943 C27.3596188,90.2873023 27.2769957,90.8916812 28.311055,91.5762425 C28.7298902,91.776857 32.6716451,91.3860866 34.2316318,91.8339038 C35.7916185,92.281721 35.1789368,93.7414847 35.1284096,94.9961969 L22.5808289,94.9961969 C21.4729593,93.9452877 20.8312755,92.4969966 20.7980778,90.9724974 C20.7980778,89.6011563 21.8960109,90.4226299 21.8960109,89.0538241 C21.8960109,85.9007219 17.4991937,82.6107074 17.4991937,76.9909659 C17.4991937,75.040283 17.5538521,73.3428244 17.3113852,72.0538842 C17.8878398,70.6987063 19.4573599,70.7227927 22.772133,67.7966099 C23.0031598,68.0244801 24.3826469,69.2430626 27.752396,71.2143458 C31.8085521,73.4502625 35.7093132,74.1893353 35.4347505,74.0638323 C31.0970405,72.0789214 29.1846348,71.7160405 27.4584487,69.893079 C26.3033149,68.6748133 23.5465652,63.8629176 25.513947,58.0771066 C24.6581629,59.904505 23.7041845,62.7929736 24.0953729,64.107268 C24.7337948,66.2449375 25.5368273,68.3372866 26.4358296,69.6309807 C25.1155136,69.0223539 23.8977353,68.2133616 22.825838,67.2327976 C21.4943358,64.7962663 20.0211033,63.0965892 20.8721207,60.0414173 C21.2197731,58.7933606 21.7530095,57.1643581 24.6835854,55.3962249 C28.2293852,53.2607738 29.8970997,52.7023493 31.0798804,51.3167464 C25.854926,53.130517 21.0824917,55.6060303 21.0116266,56.7834124 C20.387187,58.3075122 21.2906382,57.5440361 20.3185463,59.2085343 C19.8059656,58.6634207 17.3971861,57.3354984 17.8865687,54.1481682 C18.2710837,51.6225805 26.4930301,50.6936688 28.9936484,48.8238022 C29.2977648,48.5930797 26.0065075,49.7248244 22.052677,50.071542 C20.6296539,50.1983126 20.400216,51.1988497 20.3185463,51.1807849 C19.8358371,51.0689098 19.5520587,50.071542 19.7627474,49.307749 C20.0509748,48.2536513 23.0959518,43.1498662 28.2293852,45.5680158 C27.466711,43.5669416 23.9034332,43.4370017 20.6274294,46.1565484 C20.1857139,46.3276887 20.9795307,44.7009047 20.9795307,43.7881563 C20.9795307,43.3206896 20.6274294,42.9714366 20.6274294,40.9865256 C20.6274294,39.6151845 19.0486936,39.177192 20.3369776,38.2441602 C21.7390272,40.8112652 25.1113186,41.5718889 28.1515289,42.2710289 C27.8019699,38.7712091 17.5058671,38.0708014 19.2616069,32.3195354 C20.3163218,35.9724307 26.1498267,37.0445932 27.5658586,37.1723146 C26.5203593,36.0133143 15.6586065,30.8046265 17.2322577,27.0940505 C17.1706082,27.7912889 22.6291316,31.9401743 27.4241283,34.4591065 C28.0463434,33.6446052 20.5565642,27.9519706 19.9244979,27.1808883 C18.7553818,25.7433095 14.9645729,26.7495513 15.8251237,19.1816623 C17.4013172,23.0373907 22.2671791,23.0373907 27.215664,31.96743 C25.8507948,24.4629263 15.2006841,19.7673426 15.7135826,15.0901406 C15.9233013,13.35548 16.3970507,11.6628609 17.1184922,10.0706579 C16.9719951,17.7526405 25.03378,22.8019142 26.9919462,27.0341513 C25.133881,20.6094164 18.9752862,18.6080252 17.7009846,8.32090648 C17.3514256,5.4619121 18.1700293,3.73276086 23.7178491,0.579658653 L25.8132967,0 C23.306005,3.96760343 22.9948975,8.72910787 22.9948975,10.0982305 C22.9948975,19.6259933 35.185928,29.0054345 40.820502,38.3392382 C41.1455919,36.3521087 42.3191569,34.0290371 44.4432048,31.975987 C42.504741,31.3484724 38.0125895,29.2542218 38.1111016,26.3223343 C38.1199995,25.9936815 38.3335483,26.0054078 38.6989964,25.827295 C39.2433551,30.1279883 50.8007305,27.9468998 52.8551843,29.4503993 C53.5346,29.9476571 53.4545192,30.4518872 53.8085271,30.6708835 C56.6177107,30.3970589 59.744993,32.7470693 59.816176,33.2218252 C59.2006343,33.063362 58.8873023,32.6126924 57.7045216,33.063362 C55.8947591,33.7606004 51.9441063,32.9628962 51.3972053,34.3729024 C53.0375906,34.2838461 55.9840555,35.5937035 57.3590937,35.5937035 C59.626143,35.5937035 64.1513437,35.1921576 63.5151462,31.7538215 C63.1287246,29.6728818 61.7492375,28.4546161 59.8800499,28.6349473 C60.0151069,29.2668989 60.1476215,29.8348312 58.8393173,30.3961081 C58.8393173,30.3961081 57.0845309,30.6585233 57.0845309,29.2897176 C57.0845309,27.9209118 58.4595691,27.3685088 59.8342895,27.3685088 C62.4445422,27.3685088 64.6156216,28.7899244 65.1920763,31.6191277 C65.6909924,34.0594621 63.2911106,35.4590097 63.9247659,38.0920355 C63.1811584,38.171901 62.1153211,37.7063359 61.7994469,37.2341153 C61.4517945,38.1848949 60.5616901,39.8075589 59.3814516,40.6676975 C55.4409679,38.2241938 53.7170062,34.6010896 51.3492204,34.7814208 C50.898607,35.0983473 53.7170062,36.5562094 53.8542876,37.8660668 C53.991569,38.404842 54.5794637,38.4980184 54.9433229,38.8608993 C53.4472102,39.3559385 52.1786287,37.4119111 51.3492204,37.5466049 C50.1734309,38.3633246 49.9376374,41.9661456 49.9376374,42.1737325 C49.9376374,44.9138794 53.2206324,48.902083 57.0730908,48.9559606 C56.7985281,50.1675707 54.0579852,49.8503273 52.6530756,49.7067595 C55.9382951,54.3611428 58.7315896,59.7888268 58.7315896,63.0081667 C58.7315896,73.1542532 48.3433304,74.7262088 48.757399,84.8653229 C49.3316291,98.8560453 54.343988,85.5771399 57.5716891,92.2050248 L57.6381054,95 L47.8943059,95 C43.2089436,89.5197062 41.6877262,86.5171441 41.6877262,82.474429 C41.6877262,81.1030879 42.2505163,78.5499276 42.7904261,77.0122 C42.8121558,76.6991594 42.6999254,76.3915859 42.481543,76.1656892 C40.1182061,77.7696544 41.2552263,79.2915357 40.3206326,81.1030879 C39.5176001,79.8572496 38.938921,78.91059 38.938921,77.5392489 M42.8851248,58.8760784 C45.5640182,61.0482929 51.7591578,63.1587068 47.8930348,69.7273264 C54.1955843,63.8727423 45.5640182,59.4763373 42.8851248,58.8760784" id="logo"></path>
                <path d="M8.50207498,102.434783 L10.9041482,102.495492 C12.4528533,102.495492 13.5906775,102.738332 14.2860145,103.254365 C14.9813515,103.770398 15.3290199,104.741755 15.3290199,106.229145 L15.3290199,106.44163 L11.7891226,106.44163 C11.7891226,106.168435 11.7575163,105.925596 11.6626976,105.743467 C11.567879,105.561337 11.4414541,105.409563 11.1886042,105.348853 C10.9673607,105.257788 10.7461171,105.227434 10.5564797,105.197079 C10.3352361,105.166724 10.0507801,105.166724 9.67150537,105.166724 L5.5626959,105.197079 C4.70932778,105.197079 4.17202192,105.379208 3.95077834,105.773822 C3.72953475,106.168435 3.60310984,106.836243 3.60310984,107.777245 L3.60310984,108.839667 C3.60310984,109.628894 3.72953475,110.205637 3.95077834,110.569896 C4.17202192,110.934155 4.48808419,111.146639 4.89896514,111.207349 C5.30984608,111.268059 5.62590835,111.298414 5.84715194,111.298414 C6.06839552,111.298414 6.35285156,111.328769 6.70052006,111.328769 L9.89274895,111.359124 C10.4932673,111.359124 10.9673607,111.268059 11.3150292,111.085929 C11.6626976,110.9038 11.8207288,110.539541 11.8207288,109.993153 L11.7891226,109.659249 L7.26943214,109.659249 L7.26943214,107.534406 L15.329,107.533783 L15.3606262,109.871733 C15.3606262,111.268059 15.1077764,112.300126 14.6020767,112.967933 C14.0963771,113.635741 13.1165841,113.969645 11.6943039,113.969645 L9.8295365,114 L7.71191931,113.969645 L5.84715194,113.93929 C4.48808419,113.93929 3.41347248,113.848225 2.62331682,113.666096 C1.83316115,113.483967 1.20103661,113.089353 0.726943214,112.51261 C0.252849814,111.905512 0.0316062267,110.994865 0.0316062267,109.780669 L0,108.353988 C0,106.168435 0.28445604,104.620336 0.853368121,103.800753 C1.4222802,102.950816 2.74974172,102.525847 4.83575268,102.525847 L7.52228195,102.465138 L8.50207498,102.434783 Z M27.3077799,102.586557 C28.7300601,102.586557 29.7098531,102.859751 30.3419776,103.375785 C30.9424959,103.891818 31.2585582,104.83282 31.2585582,106.168435 C31.2585582,106.684469 31.226952,107.109437 31.1637395,107.473696 C31.1005271,107.837955 30.9741022,108.141504 30.816071,108.414698 C30.6264337,108.687892 30.4367963,108.870022 30.1839465,109.021796 C29.9627029,109.143216 29.4570033,109.325345 28.6984538,109.568184 C29.5202157,109.659249 30.120734,109.871733 30.5000088,110.175282 C30.8792835,110.478831 31.0689208,110.994865 31.0689208,111.753737 L31.0689208,113.908935 L27.4342048,113.908935 L27.4342048,112.816159 C27.4342048,112.269771 27.3709923,111.814447 27.2761736,111.510898 C27.181355,111.176994 26.7072616,111.02522 25.8854997,111.02522 L19.943529,111.02522 L19.943529,113.908935 L16.3720254,113.908935 L16.3720254,102.616912 L27.3077799,102.616912 L27.3077799,102.586557 Z M35.9994922,102.586557 L35.9994922,113.87858 L32.4279886,113.87858 L32.4279886,102.586557 L35.9994922,102.586557 Z M42.7632247,102.586557 L47.2513089,110.114573 L51.7709993,102.586557 L57.2388765,102.586557 L57.2388765,113.87858 L53.8570103,113.87858 L53.8570103,105.288143 L48.6735891,113.87858 L45.7974225,113.87858 L40.6772137,105.288143 L40.6772137,113.87858 L37.3269537,113.87858 L37.3269537,102.586557 L42.7632247,102.586557 Z M64.002609,102.586557 L68.4906932,110.114573 L73.0103837,102.586557 L78.4782609,102.586557 L78.4782609,113.87858 L75.0963946,113.87858 L75.0963946,105.288143 L69.9129734,113.87858 L67.0368068,113.87858 L61.9165981,105.288143 L61.9165981,113.87858 L58.5347318,113.87858 L58.5347318,102.586557 L64.002609,102.586557 Z M25.8854997,105.318498 L19.943529,105.318498 L19.943529,108.232569 L25.8222872,108.232569 C26.6440491,108.232569 27.1497487,108.141504 27.3393861,107.92902 C27.5290234,107.74689 27.6238421,107.321922 27.6238421,106.654114 C27.6238421,106.289855 27.5922359,106.016661 27.4974172,105.834532 C27.4342048,105.652402 27.2761736,105.530983 27.0233238,105.470273 C26.770474,105.409563 26.5808366,105.348853 26.4228055,105.348853 C26.2647744,105.348853 26.075137,105.318498 25.8854997,105.318498 Z" id="GRIMM"></path>
            </g>
        </g>
    </g>
</svg>